{"title":"Police.Interceptors.S05E06.PDTV.x264-W33D","uid":8219349,"size":200042839,"categoryP":"video","categoryS":"tv_shows","magnet":"?xt=urn:btih:4f8ca81a4daa9b43fd25fd704d0aad6ec1c69e77&amp;dn=Police.Interceptors.S05E06.PDTV.x264-W33D&amp;tr=udp%3A%2F%2Ftracker.openbittorrent.com%3A80&amp;tr=udp%3A%2F%2Fopen.demonii.com%3A1337&amp;tr=udp%3A%2F%2Ftracker.coppersurfer.tk%3A6969&amp;tr=udp%3A%2F%2Fexodus.desync.com%3A6969","seeders":1,"leechers":1,"uploader":"shane1989","files":1,"time":1362436954,"description":"\n\n\nSeason 5 Episode 6 of 10\n\nOfficers patrol during Black Eye Friday - one of Cumbria's most alcohol-fuelled nights of the year, and help a woman trapped inside a burning car. Meanwhile, a boy racer is made to call his mother after being caught misbehaving, and a motorway pursuit is brought to an abrupt end..\n\n\n\n\n\nGeneral\nComplete name                            : Police.Interceptors.S05E06.PDTV.x264-W33D.mp4\nFormat                                   : MPEG-4\nFormat profile                           : Base Media\nCodec ID                                 : isom\nFile size                                : 191 MiB\nDuration                                 : 45mn 4s\nOverall bit rate mode                    : Variable\nOverall bit rate                         : 592 Kbps\nWriting application                      : Lavf52.64.2\n\nVideo\nID                                       : 1\nFormat                                   : AVC\nFormat/Info                              : Advanced Video Codec\nFormat profile                           : &lt;a class=&quot;__cf_email__&quot; href=&quot;/cdn-cgi/l/email-protection&quot; data-cfemail=&quot;f1b9989699b1bdc2dfc0&quot;&gt;[email&amp;#160;protected]&lt;/a&gt;&lt;script cf-hash='f9e31' type=&quot;text/javascript&quot;&gt;\n/* &lt;![CDATA[ */!function(){try{var t=&quot;currentScript&quot;in document?document.currentScript:function(){for(var t=document.getElementsByTagName(&quot;script&quot;),e=t.length;e--;)if(t[e].getAttribute(&quot;cf-hash&quot;))return t[e]}();if(t&amp;&amp;t.previousSibling){var e,r,n,i,c=t.previousSibling,a=c.getAttribute(&quot;data-cfemail&quot;);if(a){for(e=&quot;&quot;,r=parseInt(a.substr(0,2),16),n=2;a.length-n;n+=2)i=parseInt(a.substr(n,2),16)^r,e+=String.fromCharCode(i);e=document.createTextNode(e),c.parentNode.replaceChild(e,c)}}}catch(u){}}();/* ]]&gt; */&lt;/script&gt;\nFormat settings, CABAC                   : Yes\nFormat settings, ReFrames                : 4 frames\nCodec ID                                 : avc1\nCodec ID/Info                            : Advanced Video Coding\nDuration                                 : 45mn 4s\nBit rate                                 : 524 Kbps\nWidth                                    : 688 pixels\nHeight                                   : 384 pixels\nDisplay aspect ratio                     : 16:9\nFrame rate mode                          : Constant\nFrame rate                               : 25.000 fps\nColor space                              : YUV\nChroma subsampling                       : 4:2:0\nBit depth                                : 8 bits\nScan type                                : Progressive\nBits/(Pixel*Frame)                       : 0.079\nStream size                              : 169 MiB (89%)\n\nAudio\nID                                       : 2\nFormat                                   : AAC\nFormat/Info                              : Advanced Audio Codec\nFormat profile                           : LC\nCodec ID                                 : 40\nDuration                                 : 45mn 4s\nDuration_LastFrame                       : -21ms\nBit rate mode                            : Variable\nBit rate                                 : 61.4 Kbps\nChannel(s)                               : 2 channels\nChannel positions                        : Front: L R\nSampling rate                            : 48.0 KHz\nCompression mode                         : Lossy\nDelay relative to video                  : 200ms\nStream size                              : 19.8 MiB (10%)","torrent":{"xt":"urn:btih:4f8ca81a4daa9b43fd25fd704d0aad6ec1c69e77","amp;dn":"Police.Interceptors.S05E06.PDTV.x264-W33D","amp;tr":["udp%3A%2F%2Ftracker.openbittorrent.com%3A80","udp%3A%2F%2Fopen.demonii.com%3A1337","udp%3A%2F%2Ftracker.coppersurfer.tk%3A6969","udp%3A%2F%2Fexodus.desync.com%3A6969"],"infoHash":"4f8ca81a4daa9b43fd25fd704d0aad6ec1c69e77","infoHashBuffer":{"type":"Buffer","data":[79,140,168,26,77,170,155,67,253,37,253,112,77,10,173,110,193,198,158,119]},"announce":[],"urlList":[]}}